<mxfile host="app.diagrams.net" agent="Mozilla/5.0 (Windows NT 10.0; Win64; x64) AppleWebKit/537.36 (KHTML, like Gecko) Chrome/132.0.0.0 Safari/537.36 OPR/117.0.0.0" version="26.2.13">
  <diagram name="Page-1" id="2YBvvXClWsGukQMizWep">
    <mxGraphModel dx="734" dy="471" grid="0" gridSize="10" guides="1" tooltips="1" connect="1" arrows="1" fold="1" page="1" pageScale="1" pageWidth="850" pageHeight="1100" math="0" shadow="0">
      <root>
        <mxCell id="0" />
        <mxCell id="1" parent="0" />
        <mxCell id="YkDdzqx442pK7366gIHG-34" value="" style="shape=umlLifeline;perimeter=lifelinePerimeter;whiteSpace=wrap;html=1;container=1;dropTarget=0;collapsible=0;recursiveResize=0;outlineConnect=0;portConstraint=eastwest;newEdgeStyle={&quot;curved&quot;:0,&quot;rounded&quot;:0};participant=umlActor;" vertex="1" parent="1">
          <mxGeometry x="227" y="79" width="20" height="474" as="geometry" />
        </mxCell>
        <mxCell id="YkDdzqx442pK7366gIHG-43" value="" style="html=1;points=[[0,0,0,0,5],[0,1,0,0,-5],[1,0,0,0,5],[1,1,0,0,-5]];perimeter=orthogonalPerimeter;outlineConnect=0;targetShapes=umlLifeline;portConstraint=eastwest;newEdgeStyle={&quot;curved&quot;:0,&quot;rounded&quot;:0};fillColor=light-dark(#FFFFFF,#FFFFFF);strokeColor=light-dark(#000000,#000000);" vertex="1" parent="YkDdzqx442pK7366gIHG-34">
          <mxGeometry x="4" y="338.5" width="10" height="27.5" as="geometry" />
        </mxCell>
        <mxCell id="YkDdzqx442pK7366gIHG-1" value="&lt;b&gt;:Système de Gestion&lt;/b&gt;" style="shape=umlLifeline;perimeter=lifelinePerimeter;whiteSpace=wrap;html=1;container=0;dropTarget=0;collapsible=0;recursiveResize=0;outlineConnect=0;portConstraint=eastwest;newEdgeStyle={&quot;edgeStyle&quot;:&quot;elbowEdgeStyle&quot;,&quot;elbow&quot;:&quot;vertical&quot;,&quot;curved&quot;:0,&quot;rounded&quot;:0};fillColor=light-dark(#FFFFFF, #ffffff);strokeColor=light-dark(#000000,#000000);labelBackgroundColor=none;fontColor=light-dark(#000000,#000000);" vertex="1" parent="1">
          <mxGeometry x="336" y="87" width="100" height="466" as="geometry" />
        </mxCell>
        <mxCell id="YkDdzqx442pK7366gIHG-2" value="" style="html=1;points=[[0,0,0,0,5],[0,1,0,0,-5],[1,0,0,0,5],[1,1,0,0,-5]];perimeter=orthogonalPerimeter;outlineConnect=0;targetShapes=umlLifeline;portConstraint=eastwest;newEdgeStyle={&quot;curved&quot;:0,&quot;rounded&quot;:0};fillColor=light-dark(#FFFFFF,#FFFFFF);strokeColor=light-dark(#000000,#000000);" vertex="1" parent="YkDdzqx442pK7366gIHG-1">
          <mxGeometry x="45" y="70" width="10" height="34" as="geometry" />
        </mxCell>
        <mxCell id="YkDdzqx442pK7366gIHG-3" value="" style="html=1;points=[[0,0,0,0,5],[0,1,0,0,-5],[1,0,0,0,5],[1,1,0,0,-5]];perimeter=orthogonalPerimeter;outlineConnect=0;targetShapes=umlLifeline;portConstraint=eastwest;newEdgeStyle={&quot;curved&quot;:0,&quot;rounded&quot;:0};fillColor=light-dark(#FFFFFF,#FFFFFF);strokeColor=light-dark(#000000,#000000);" vertex="1" parent="YkDdzqx442pK7366gIHG-1">
          <mxGeometry x="44.99999999999997" y="148" width="10" height="34" as="geometry" />
        </mxCell>
        <mxCell id="YkDdzqx442pK7366gIHG-4" value="" style="html=1;points=[[0,0,0,0,5],[0,1,0,0,-5],[1,0,0,0,5],[1,1,0,0,-5]];perimeter=orthogonalPerimeter;outlineConnect=0;targetShapes=umlLifeline;portConstraint=eastwest;newEdgeStyle={&quot;curved&quot;:0,&quot;rounded&quot;:0};fillColor=light-dark(#FFFFFF,#FFFFFF);strokeColor=light-dark(#000000,#000000);" vertex="1" parent="YkDdzqx442pK7366gIHG-1">
          <mxGeometry x="45" y="222" width="10" height="34" as="geometry" />
        </mxCell>
        <mxCell id="YkDdzqx442pK7366gIHG-44" value="" style="html=1;points=[[0,0,0,0,5],[0,1,0,0,-5],[1,0,0,0,5],[1,1,0,0,-5]];perimeter=orthogonalPerimeter;outlineConnect=0;targetShapes=umlLifeline;portConstraint=eastwest;newEdgeStyle={&quot;curved&quot;:0,&quot;rounded&quot;:0};fillColor=light-dark(#FFFFFF,#FFFFFF);strokeColor=light-dark(#000000,#000000);" vertex="1" parent="YkDdzqx442pK7366gIHG-1">
          <mxGeometry x="45" y="329" width="10" height="20" as="geometry" />
        </mxCell>
        <mxCell id="YkDdzqx442pK7366gIHG-8" value="" style="html=1;points=[[0,0,0,0,5],[0,1,0,0,-5],[1,0,0,0,5],[1,1,0,0,-5]];perimeter=orthogonalPerimeter;outlineConnect=0;targetShapes=umlLifeline;portConstraint=eastwest;newEdgeStyle={&quot;curved&quot;:0,&quot;rounded&quot;:0};fillColor=light-dark(#FFFFFF,#FFFFFF);strokeColor=light-dark(#000000,#000000);" vertex="1" parent="1">
          <mxGeometry x="232" y="149" width="10" height="60" as="geometry" />
        </mxCell>
        <mxCell id="YkDdzqx442pK7366gIHG-9" value="" style="html=1;points=[[0,0,0,0,5],[0,1,0,0,-5],[1,0,0,0,5],[1,1,0,0,-5]];perimeter=orthogonalPerimeter;outlineConnect=0;targetShapes=umlLifeline;portConstraint=eastwest;newEdgeStyle={&quot;curved&quot;:0,&quot;rounded&quot;:0};fillColor=light-dark(#FFFFFF,#FFFFFF);strokeColor=light-dark(#000000,#000000);" vertex="1" parent="1">
          <mxGeometry x="232" y="220" width="10" height="60" as="geometry" />
        </mxCell>
        <mxCell id="YkDdzqx442pK7366gIHG-10" value="" style="html=1;points=[[0,0,0,0,5],[0,1,0,0,-5],[1,0,0,0,5],[1,1,0,0,-5]];perimeter=orthogonalPerimeter;outlineConnect=0;targetShapes=umlLifeline;portConstraint=eastwest;newEdgeStyle={&quot;curved&quot;:0,&quot;rounded&quot;:0};fillColor=light-dark(#FFFFFF,#FFFFFF);strokeColor=light-dark(#000000,#000000);" vertex="1" parent="1">
          <mxGeometry x="232" y="293" width="10" height="60" as="geometry" />
        </mxCell>
        <mxCell id="YkDdzqx442pK7366gIHG-11" value="" style="endArrow=block;endFill=1;endSize=12;html=1;rounded=0;strokeColor=light-dark(#000000,#000000);exitX=1;exitY=0;exitDx=0;exitDy=5;exitPerimeter=0;" edge="1" parent="1" source="YkDdzqx442pK7366gIHG-8">
          <mxGeometry width="160" relative="1" as="geometry">
            <mxPoint x="252" y="156" as="sourcePoint" />
            <mxPoint x="379" y="154" as="targetPoint" />
          </mxGeometry>
        </mxCell>
        <mxCell id="YkDdzqx442pK7366gIHG-12" value="&lt;b&gt;:Administrateur&lt;/b&gt;" style="shape=umlLifeline;perimeter=lifelinePerimeter;whiteSpace=wrap;html=1;container=1;dropTarget=0;collapsible=0;recursiveResize=0;outlineConnect=0;portConstraint=eastwest;newEdgeStyle={&quot;curved&quot;:0,&quot;rounded&quot;:0};fillColor=light-dark(#FFFFFF,#FFFFFF);fontColor=light-dark(#000000,#000000);strokeColor=light-dark(#000000,#000000);" vertex="1" parent="1">
          <mxGeometry x="466" y="85" width="100" height="468" as="geometry" />
        </mxCell>
        <mxCell id="YkDdzqx442pK7366gIHG-14" value="&lt;font style=&quot;color: light-dark(rgb(0, 0, 0), rgb(0, 0, 0)); font-size: 9px;&quot;&gt;&lt;b style=&quot;&quot;&gt;S&#39;authentifier&lt;/b&gt;&lt;/font&gt;" style="text;html=1;align=center;verticalAlign=middle;whiteSpace=wrap;rounded=0;" vertex="1" parent="1">
          <mxGeometry x="241" y="135" width="129" height="22" as="geometry" />
        </mxCell>
        <mxCell id="YkDdzqx442pK7366gIHG-15" value="" style="endArrow=open;html=1;rounded=0;strokeColor=light-dark(#000000,#000000);dashed=1;strokeWidth=1;endFill=0;" edge="1" parent="1">
          <mxGeometry width="50" height="50" relative="1" as="geometry">
            <mxPoint x="378.5" y="191" as="sourcePoint" />
            <mxPoint x="242.44736842105272" y="191" as="targetPoint" />
          </mxGeometry>
        </mxCell>
        <mxCell id="YkDdzqx442pK7366gIHG-16" value="&lt;font style=&quot;color: light-dark(rgb(0, 0, 0), rgb(0, 0, 0)); font-size: 9px;&quot;&gt;&lt;b style=&quot;&quot;&gt;Confirmation connexion&lt;/b&gt;&lt;/font&gt;" style="text;html=1;align=center;verticalAlign=middle;whiteSpace=wrap;rounded=0;" vertex="1" parent="1">
          <mxGeometry x="249" y="172" width="118" height="22" as="geometry" />
        </mxCell>
        <mxCell id="YkDdzqx442pK7366gIHG-17" value="" style="endArrow=block;endFill=1;endSize=12;html=1;rounded=0;strokeColor=light-dark(#000000,#000000);" edge="1" parent="1" target="YkDdzqx442pK7366gIHG-3">
          <mxGeometry width="160" relative="1" as="geometry">
            <mxPoint x="242" y="237" as="sourcePoint" />
            <mxPoint x="371.28" y="237" as="targetPoint" />
          </mxGeometry>
        </mxCell>
        <mxCell id="YkDdzqx442pK7366gIHG-18" value="&lt;font style=&quot;color: light-dark(rgb(0, 0, 0), rgb(0, 0, 0)); font-size: 9px;&quot;&gt;&lt;b style=&quot;&quot;&gt;Consulte ces réservations&lt;/b&gt;&lt;/font&gt;" style="text;html=1;align=center;verticalAlign=middle;whiteSpace=wrap;rounded=0;" vertex="1" parent="1">
          <mxGeometry x="247.92000000000002" y="217" width="114.72" height="17" as="geometry" />
        </mxCell>
        <mxCell id="YkDdzqx442pK7366gIHG-19" value="" style="endArrow=open;html=1;rounded=0;strokeColor=light-dark(#000000,#000000);dashed=1;strokeWidth=1;endFill=0;entryX=0;entryY=1;entryDx=0;entryDy=0;" edge="1" parent="1" target="YkDdzqx442pK7366gIHG-20">
          <mxGeometry width="50" height="50" relative="1" as="geometry">
            <mxPoint x="381" y="267" as="sourcePoint" />
            <mxPoint x="234.72736842105272" y="272" as="targetPoint" />
          </mxGeometry>
        </mxCell>
        <mxCell id="YkDdzqx442pK7366gIHG-20" value="&lt;font style=&quot;color: light-dark(rgb(0, 0, 0), rgb(0, 0, 0)); font-size: 9px;&quot;&gt;&lt;b style=&quot;&quot;&gt;Liste des réservations&lt;/b&gt;&lt;/font&gt;" style="text;html=1;align=center;verticalAlign=middle;whiteSpace=wrap;rounded=0;" vertex="1" parent="1">
          <mxGeometry x="243.28" y="245" width="118" height="22" as="geometry" />
        </mxCell>
        <mxCell id="YkDdzqx442pK7366gIHG-21" value="" style="endArrow=block;endFill=1;endSize=12;html=1;rounded=0;strokeColor=light-dark(#000000,#000000);" edge="1" parent="1">
          <mxGeometry width="160" relative="1" as="geometry">
            <mxPoint x="243" y="308" as="sourcePoint" />
            <mxPoint x="384.5" y="308" as="targetPoint" />
          </mxGeometry>
        </mxCell>
        <mxCell id="YkDdzqx442pK7366gIHG-22" value="&lt;font style=&quot;color: light-dark(rgb(0, 0, 0), rgb(0, 0, 0)); font-size: 9px;&quot;&gt;&lt;b style=&quot;&quot;&gt;Demande d&#39;annulation&lt;/b&gt;&lt;/font&gt;" style="text;html=1;align=center;verticalAlign=middle;whiteSpace=wrap;rounded=0;" vertex="1" parent="1">
          <mxGeometry x="241.28" y="287" width="129" height="18" as="geometry" />
        </mxCell>
        <mxCell id="YkDdzqx442pK7366gIHG-26" value="" style="endArrow=block;endFill=1;endSize=12;html=1;rounded=0;strokeColor=light-dark(#000000,#000000);" edge="1" parent="1">
          <mxGeometry width="160" relative="1" as="geometry">
            <mxPoint x="396" y="309" as="sourcePoint" />
            <mxPoint x="512.28" y="309" as="targetPoint" />
          </mxGeometry>
        </mxCell>
        <mxCell id="YkDdzqx442pK7366gIHG-27" value="&lt;font style=&quot;color: light-dark(rgb(0, 0, 0), rgb(0, 0, 0)); font-size: 9px;&quot;&gt;Vérifie les conditions&lt;/font&gt;" style="text;html=1;align=center;verticalAlign=middle;whiteSpace=wrap;rounded=0;" vertex="1" parent="1">
          <mxGeometry x="383.28" y="291" width="129" height="18" as="geometry" />
        </mxCell>
        <mxCell id="YkDdzqx442pK7366gIHG-28" value="" style="html=1;verticalAlign=bottom;endArrow=open;dashed=1;endSize=8;curved=0;rounded=0;strokeColor=light-dark(#000000,#000000);" edge="1" parent="1">
          <mxGeometry relative="1" as="geometry">
            <mxPoint x="515.5" y="341" as="sourcePoint" />
            <mxPoint x="392" y="341" as="targetPoint" />
          </mxGeometry>
        </mxCell>
        <mxCell id="YkDdzqx442pK7366gIHG-29" value="&lt;font style=&quot;color: light-dark(rgb(0, 0, 0), rgb(0, 0, 0));&quot;&gt;&lt;span style=&quot;font-size: 10px;&quot;&gt;reponse&lt;/span&gt;&lt;/font&gt;" style="text;html=1;align=center;verticalAlign=middle;whiteSpace=wrap;rounded=0;" vertex="1" parent="1">
          <mxGeometry x="408" y="322" width="84" height="17" as="geometry" />
        </mxCell>
        <mxCell id="YkDdzqx442pK7366gIHG-35" value="alt" style="shape=umlFrame;whiteSpace=wrap;html=1;pointerEvents=0;" vertex="1" parent="1">
          <mxGeometry x="120" y="361" width="571" height="192" as="geometry" />
        </mxCell>
        <mxCell id="YkDdzqx442pK7366gIHG-36" value="[reponse = null]" style="text;html=1;align=center;verticalAlign=middle;whiteSpace=wrap;rounded=0;" vertex="1" parent="1">
          <mxGeometry x="247.99999999999997" y="363" width="88" height="30" as="geometry" />
        </mxCell>
        <mxCell id="YkDdzqx442pK7366gIHG-37" value="" style="html=1;verticalAlign=bottom;endArrow=open;dashed=1;endSize=8;curved=0;rounded=0;strokeColor=light-dark(#000000,#000000);" edge="1" parent="1">
          <mxGeometry relative="1" as="geometry">
            <mxPoint x="378" y="419" as="sourcePoint" />
            <mxPoint x="240.41352941176464" y="419" as="targetPoint" />
          </mxGeometry>
        </mxCell>
        <mxCell id="YkDdzqx442pK7366gIHG-38" value="&lt;font style=&quot;color: light-dark(rgb(0, 0, 0), rgb(0, 0, 0));&quot;&gt;&lt;span style=&quot;font-size: 10px;&quot;&gt;Annulation échoué&lt;/span&gt;&lt;/font&gt;" style="text;html=1;align=center;verticalAlign=middle;whiteSpace=wrap;rounded=0;" vertex="1" parent="1">
          <mxGeometry x="248.27999999999997" y="394" width="112.72" height="17" as="geometry" />
        </mxCell>
        <mxCell id="YkDdzqx442pK7366gIHG-40" value="" style="line;strokeWidth=1;fillColor=none;align=left;verticalAlign=middle;spacingTop=-1;spacingLeft=3;spacingRight=3;rotatable=0;labelPosition=right;points=[];portConstraint=eastwest;strokeColor=inherit;dashed=1;" vertex="1" parent="1">
          <mxGeometry x="120" y="465" width="571" height="8" as="geometry" />
        </mxCell>
        <mxCell id="YkDdzqx442pK7366gIHG-41" value="[Else]" style="text;html=1;align=center;verticalAlign=middle;whiteSpace=wrap;rounded=0;" vertex="1" parent="1">
          <mxGeometry x="97" y="447" width="88" height="30" as="geometry" />
        </mxCell>
        <mxCell id="YkDdzqx442pK7366gIHG-47" value="" style="html=1;points=[[0,0,0,0,5],[0,1,0,0,-5],[1,0,0,0,5],[1,1,0,0,-5]];perimeter=orthogonalPerimeter;outlineConnect=0;targetShapes=umlLifeline;portConstraint=eastwest;newEdgeStyle={&quot;curved&quot;:0,&quot;rounded&quot;:0};fillColor=light-dark(#FFFFFF,#FFFFFF);strokeColor=light-dark(#000000,#000000);" vertex="1" parent="1">
          <mxGeometry x="380" y="495.5" width="10" height="19.5" as="geometry" />
        </mxCell>
        <mxCell id="YkDdzqx442pK7366gIHG-48" value="" style="html=1;verticalAlign=bottom;endArrow=open;dashed=1;endSize=8;curved=0;rounded=0;strokeColor=light-dark(#000000,#000000);" edge="1" parent="1" source="YkDdzqx442pK7366gIHG-50">
          <mxGeometry relative="1" as="geometry">
            <mxPoint x="377" y="508.5" as="sourcePoint" />
            <mxPoint x="239.41352941176464" y="508.5" as="targetPoint" />
          </mxGeometry>
        </mxCell>
        <mxCell id="YkDdzqx442pK7366gIHG-49" value="&lt;font style=&quot;color: light-dark(rgb(0, 0, 0), rgb(0, 0, 0));&quot;&gt;&lt;span style=&quot;font-size: 10px;&quot;&gt;Annulation effectuer&lt;/span&gt;&lt;/font&gt;" style="text;html=1;align=center;verticalAlign=middle;whiteSpace=wrap;rounded=0;" vertex="1" parent="1">
          <mxGeometry x="257.28" y="483.5" width="112.72" height="17" as="geometry" />
        </mxCell>
        <mxCell id="YkDdzqx442pK7366gIHG-51" value="" style="html=1;verticalAlign=bottom;endArrow=open;dashed=1;endSize=8;curved=0;rounded=0;strokeColor=light-dark(#000000,#000000);" edge="1" parent="1">
          <mxGeometry relative="1" as="geometry">
            <mxPoint x="377" y="499.5" as="sourcePoint" />
            <mxPoint x="241" y="499.5" as="targetPoint" />
          </mxGeometry>
        </mxCell>
        <mxCell id="YkDdzqx442pK7366gIHG-50" value="" style="html=1;points=[[0,0,0,0,5],[0,1,0,0,-5],[1,0,0,0,5],[1,1,0,0,-5]];perimeter=orthogonalPerimeter;outlineConnect=0;targetShapes=umlLifeline;portConstraint=eastwest;newEdgeStyle={&quot;curved&quot;:0,&quot;rounded&quot;:0};fillColor=light-dark(#FFFFFF,#FFFFFF);strokeColor=light-dark(#000000,#000000);" vertex="1" parent="1">
          <mxGeometry x="231" y="496" width="10" height="27.5" as="geometry" />
        </mxCell>
      </root>
    </mxGraphModel>
  </diagram>
</mxfile>
